<?xml version="1.0" standalone="no"?>
<!DOCTYPE svg PUBLIC "-//W3C//DTD SVG 20010904//EN"
 "http://www.w3.org/TR/2001/REC-SVG-20010904/DTD/svg10.dtd">
<svg version="1.0" xmlns="http://www.w3.org/2000/svg"
 width="260.000000pt" height="260.000000pt" viewBox="0 0 260.000000 260.000000"
 preserveAspectRatio="xMidYMid meet">
<metadata>
Created by potrace 1.14, written by Peter Selinger 2001-2017
</metadata>
<g transform="translate(0.000000,260.000000) scale(0.100000,-0.100000)"
fill="#000000" stroke="none">
<path d="M1110 2366 c-145 -31 -309 -105 -418 -188 -80 -62 -197 -192 -243
-269 -32 -53 -47 -69 -64 -69 -19 0 -28 -13 -53 -77 -86 -217 -99 -453 -37
-673 35 -126 60 -180 84 -180 14 0 37 -25 74 -83 143 -216 336 -356 584 -424
85 -23 117 -27 248 -27 213 -1 340 32 518 133 134 77 277 217 349 343 24 42
40 58 58 60 20 2 30 15 51 69 106 263 103 569 -7 817 -19 43 -27 52 -42 48
-15 -5 -27 7 -57 59 -126 215 -344 377 -603 447 -98 27 -343 34 -442 14z m243
-73 c-35 -2 -91 -2 -125 0 -35 2 -7 3 62 3 69 0 97 -1 63 -3z m-200 -10 c-7
-2 -21 -2 -30 0 -10 3 -4 5 12 5 17 0 24 -2 18 -5z m320 0 c-7 -2 -19 -2 -25
0 -7 3 -2 5 12 5 14 0 19 -2 13 -5z m-451 -32 c-196 -67 -334 -166 -452 -323
-74 -97 -114 -175 -151 -288 -15 -47 -28 -79 -28 -71 -1 7 13 54 30 105 80
240 241 423 470 534 91 44 162 70 194 71 11 0 -17 -13 -63 -28z m318 -81 c0
-5 -7 -10 -16 -10 -8 0 -12 5 -9 10 3 6 10 10 16 10 5 0 9 -4 9 -10z m-117 -7
c-7 -2 -19 -2 -25 0 -7 3 -2 5 12 5 14 0 19 -2 13 -5z m-103 -12 c0 -5 -9 -11
-20 -14 -11 -3 -20 -1 -20 3 0 5 8 11 18 13 9 3 18 5 20 6 1 0 2 -3 2 -8z
m327 3 c-3 -3 -12 -4 -19 -1 -8 3 -5 6 6 6 11 1 17 -2 13 -5z m-442 -44 c-3
-5 -14 -10 -23 -10 -15 0 -15 2 -2 10 20 13 33 13 25 0z m650 -20 c3 -5 2 -10
-4 -10 -5 0 -13 5 -16 10 -3 6 -2 10 4 10 5 0 13 -4 16 -10z m-759 -35 c-11
-8 -22 -12 -25 -9 -6 6 19 24 34 24 6 -1 1 -7 -9 -15z m-86 -60 c-7 -8 -17
-15 -22 -15 -6 0 -5 7 2 15 7 8 17 15 22 15 6 0 5 -7 -2 -15z m-80 -74 c0 -12
-20 -25 -27 -18 -7 7 6 27 18 27 5 0 9 -4 9 -9z m-76 -95 c-6 -16 -24 -23 -24
-8 0 10 22 33 27 28 2 -2 1 -11 -3 -20z m1356 -95 c0 -9 6 -23 13 -30 10 -11
10 -14 0 -18 -8 -3 -13 -22 -13 -44 l0 -39 -115 0 -115 0 0 -305 0 -305 -84 0
c-58 0 -85 4 -89 13 -3 9 -8 377 -7 584 0 9 -32 13 -112 15 l-113 3 0 75 0 75
305 5 c168 3 311 1 318 -4 6 -5 12 -16 12 -25z m-878 -4 c66 -33 93 -65 108
-131 14 -63 -1 -116 -47 -167 -20 -22 -34 -41 -32 -42 2 -2 23 -15 46 -30 58
-37 77 -77 78 -158 0 -85 -31 -136 -108 -176 l-52 -28 -247 -3 -248 -4 0 380
c0 208 3 382 7 386 5 4 105 6 223 4 212 -3 216 -3 272 -31z m-538 -1 c-3 -9
-10 -16 -15 -16 -6 0 -5 9 1 21 13 24 24 20 14 -5z m-41 -96 c-3 -11 -9 -20
-13 -20 -5 0 -6 9 -3 20 3 11 9 20 13 20 5 0 6 -9 3 -20z m-166 -133 c-6 -39
-3 -46 23 -69 44 -38 39 -78 -12 -117 -13 -10 -22 -9 -47 4 -51 26 -54 95 -5
117 19 9 25 21 30 60 4 26 9 48 12 48 2 0 2 -19 -1 -43z m142 36 c0 -5 -4 -17
-9 -28 -8 -18 -9 -17 -9 8 -1 15 4 27 9 27 6 0 10 -3 9 -7z m1558 -75 c-3 -8
-6 -5 -6 6 -1 11 2 17 5 13 3 -3 4 -12 1 -19z m191 -81 c3 -33 -1 -39 -27 -55
-17 -9 -31 -24 -32 -32 0 -10 -2 -11 -6 -2 -2 7 -18 25 -34 41 -37 37 -37 56
2 92 l32 29 31 -18 c24 -14 32 -26 34 -55z m-1771 11 c-3 -7 -5 -2 -5 12 0 14
2 19 5 13 2 -7 2 -19 0 -25z m13 -109 c0 -5 -4 -9 -10 -9 -5 0 -10 7 -10 16 0
8 5 12 10 9 6 -3 10 -10 10 -16z m1557 -51 c-3 -8 -6 -5 -6 6 -1 11 2 17 5 13
3 -3 4 -12 1 -19z m120 -70 c-3 -8 -6 -5 -6 6 -1 11 2 17 5 13 3 -3 4 -12 1
-19z m-145 -40 c-7 -7 -12 -8 -12 -2 0 14 12 26 19 19 2 -3 -1 -11 -7 -17z
m-32 -87 c0 -5 -6 -14 -14 -20 -12 -10 -13 -8 -9 8 5 21 23 30 23 12z m109
-63 c-117 -230 -291 -383 -535 -471 -89 -32 -198 -47 -317 -45 -90 1 -89 1 38
8 158 9 241 29 364 86 193 90 359 252 447 437 10 20 19 35 21 33 3 -2 -6 -24
-18 -48z m-1505 -4 c3 -8 2 -12 -4 -9 -6 3 -10 10 -10 16 0 14 7 11 14 -7z
m1331 -43 c-3 -6 -11 -11 -17 -11 -6 0 -6 6 2 15 14 17 26 13 15 -4z m-1265
-52 c0 -6 -4 -7 -10 -4 -5 3 -10 11 -10 16 0 6 5 7 10 4 6 -3 10 -11 10 -16z
m1200 -34 c-7 -8 -17 -15 -22 -15 -6 0 -5 7 2 15 7 8 17 15 22 15 6 0 5 -7 -2
-15z m-1125 -36 c11 -17 -1 -21 -15 -4 -8 9 -8 15 -2 15 6 0 14 -5 17 -11z
m1035 -44 c-7 -9 -15 -13 -18 -10 -3 2 1 11 8 20 7 9 15 13 18 10 3 -2 -1 -11
-8 -20z m-945 -35 c3 -6 -1 -7 -9 -4 -18 7 -21 14 -7 14 6 0 13 -4 16 -10z
m860 -29 c-3 -6 -14 -11 -23 -11 -15 1 -15 2 2 15 21 16 32 13 21 -4z m-748
-37 c-7 -7 -37 7 -37 17 0 6 9 5 21 -1 11 -7 19 -14 16 -16z m648 -13 c-3 -6
-14 -11 -23 -11 -15 1 -15 2 2 15 21 16 32 13 21 -4z m-550 -21 c8 -13 -5 -13
-25 0 -13 8 -13 10 2 10 9 0 20 -4 23 -10z m450 -10 c-3 -5 -16 -10 -28 -9
-21 0 -21 1 -2 9 28 12 37 12 30 0z m-342 -17 c-7 -2 -19 -2 -25 0 -7 3 -2 5
12 5 14 0 19 -2 13 -5z m232 -3 c4 -6 -6 -10 -22 -10 -22 0 -25 2 -13 10 19
12 27 12 35 0z m-122 -7 c-7 -2 -19 -2 -25 0 -7 3 -2 5 12 5 14 0 19 -2 13 -5z
m-356 -49 c-3 -3 -12 -4 -19 -1 -8 3 -5 6 6 6 11 1 17 -2 13 -5z m148 -49 c29
-8 39 -14 25 -14 -14 0 -41 7 -60 14 -46 18 -28 18 35 0z m98 -22 c-7 -2 -21
-2 -30 0 -10 3 -4 5 12 5 17 0 24 -2 18 -5z"/>
<path d="M808 1604 c-5 -4 -8 -41 -8 -82 l0 -74 114 4 c134 4 156 15 156 79 0
58 -29 73 -154 77 -56 2 -104 1 -108 -4z"/>
<path d="M800 1220 l0 -80 125 0 c134 0 166 8 184 47 17 37 14 52 -18 84 l-29
29 -131 0 -131 0 0 -80z"/>
<path d="M2065 2340 c10 -11 20 -20 23 -20 3 0 -3 9 -13 20 -10 11 -20 20 -23
20 -3 0 3 -9 13 -20z"/>
<path d="M2165 2250 c27 -27 51 -50 54 -50 3 0 -17 23 -44 50 -27 28 -51 50
-54 50 -3 0 17 -22 44 -50z"/>
<path d="M2256 2148 c10 -14 21 -24 23 -22 3 3 -6 15 -18 27 l-24 22 19 -27z"/>
<path d="M2381 1912 c6 -18 15 -35 20 -38 5 -3 4 7 -3 23 -17 41 -30 53 -17
15z"/>
<path d="M2420 1825 c0 -5 5 -17 10 -25 5 -8 10 -10 10 -5 0 6 -5 17 -10 25
-5 8 -10 11 -10 5z"/>
<path d="M2441 1764 c0 -11 3 -14 6 -6 3 7 2 16 -1 19 -3 4 -6 -2 -5 -13z"/>
</g>
</svg>
