<?xml version="1.0" standalone="no"?>
<!DOCTYPE svg PUBLIC "-//W3C//DTD SVG 20010904//EN"
 "http://www.w3.org/TR/2001/REC-SVG-20010904/DTD/svg10.dtd">
<svg version="1.0" xmlns="http://www.w3.org/2000/svg"
 width="500.000000pt" height="500.000000pt" viewBox="0 0 500.000000 500.000000"
 preserveAspectRatio="xMidYMid meet">
<metadata>
Created by potrace 1.14, written by Peter Selinger 2001-2017
</metadata>
<g transform="translate(0.000000,500.000000) scale(0.100000,-0.100000)"
fill="#000000" stroke="none">
<path d="M2305 4539 c-388 -40 -758 -190 -1070 -434 -92 -72 -273 -252 -341
-340 -424 -546 -546 -1257 -328 -1912 53 -161 101 -266 184 -403 208 -345 486
-603 849 -784 946 -475 2113 -135 2664 775 200 332 314 772 293 1129 -35 558
-228 1003 -601 1375 -288 289 -621 470 -1025 559 -195 43 -424 56 -625 35z
m123 -197 c2 -60 0 -72 -13 -72 -12 0 -15 14 -15 76 0 56 3 75 13 72 8 -3 13
-30 15 -76z m112 3 c0 -60 -3 -75 -15 -75 -12 0 -15 15 -15 75 0 60 3 75 15
75 12 0 15 -15 15 -75z m120 6 c0 -63 -6 -91 -21 -91 -5 0 -9 34 -9 75 0 60 3
75 15 75 12 0 15 -13 15 -59z m-350 17 c0 -18 3 -50 6 -70 5 -30 3 -38 -8 -38
-16 0 -28 46 -28 108 0 22 5 32 15 32 10 0 15 -10 15 -32z m476 0 c-3 -18 -8
-52 -12 -75 -4 -29 -12 -43 -21 -43 -13 0 -14 10 -9 58 10 77 15 92 33 92 12
0 14 -7 9 -32z m-596 -35 c16 -84 16 -88 1 -88 -10 0 -19 20 -27 65 -6 36 -10
68 -7 73 11 19 23 2 33 -50z m720 40 c0 -7 -11 -57 -25 -120 -3 -13 -12 -23
-20 -23 -19 0 -19 -2 10 128 5 20 35 33 35 15z m-839 -55 c15 -55 17 -92 4
-96 -5 -2 -17 25 -27 60 -21 77 -21 78 -3 78 8 0 19 -17 26 -42z m959 23 c0
-24 -42 -141 -50 -141 -14 0 -12 34 6 96 9 33 21 54 30 54 8 0 14 -4 14 -9z
m-1068 -80 c14 -44 16 -67 9 -74 -7 -7 -12 -6 -15 4 -3 8 -14 38 -25 68 -11
30 -18 58 -15 63 12 20 27 -1 46 -61z m1184 32 c-20 -62 -45 -118 -55 -121
-19 -6 -14 22 24 126 7 20 37 15 31 -5z m-1298 -65 c26 -73 26 -78 9 -78 -15
0 -61 115 -52 130 12 20 20 9 43 -52z m1405 16 c-4 -37 -44 -114 -60 -114 -10
0 -13 5 -8 18 4 9 16 41 27 70 20 50 45 66 41 26z m-1517 -61 c31 -70 32 -74
19 -79 -12 -5 -77 121 -68 130 14 14 25 3 49 -51z m1611 -39 c-18 -35 -38 -64
-44 -64 -19 0 -16 15 17 80 21 42 34 58 45 54 12 -5 9 -18 -18 -70z m-1687
-80 c0 -31 -18 -18 -50 38 -27 46 -34 67 -27 76 8 10 18 -1 44 -45 18 -32 33
-63 33 -69z m1820 86 c0 -21 -63 -120 -76 -120 -8 0 -14 3 -14 6 0 6 49 93 63
112 11 15 27 16 27 2z m-750 -35 c550 -78 1022 -428 1255 -930 275 -591 175
-1276 -257 -1765 -203 -231 -478 -404 -773 -489 -201 -57 -461 -76 -668 -47
-607 85 -1132 518 -1322 1091 -69 209 -79 273 -79 530 -1 214 1 238 26 340 94
396 309 726 627 964 155 115 393 228 582 275 178 45 423 57 609 31z m-1202
-49 c33 -56 39 -76 22 -76 -11 0 -80 103 -80 120 0 26 28 5 58 -44z m2055 18
c7 -8 -72 -124 -84 -124 -17 0 -9 22 27 76 35 53 44 60 57 48z m-2152 -90 c27
-37 38 -59 31 -66 -6 -6 -25 11 -55 50 -42 54 -48 72 -26 72 5 0 27 -25 50
-56z m2253 17 c3 -4 -2 -18 -12 -29 -9 -11 -30 -37 -46 -57 -19 -24 -32 -33
-38 -27 -7 7 4 29 32 66 42 55 54 64 64 47z m-2349 -87 c32 -37 44 -59 38 -65
-13 -13 -108 95 -98 111 9 15 8 15 60 -46z m2445 3 c0 -7 -22 -34 -49 -61 -65
-64 -76 -43 -15 29 44 51 64 61 64 32z m-2527 -90 c27 -32 37 -51 30 -58 -6
-6 -25 7 -56 40 -26 28 -47 55 -47 61 0 23 34 3 73 -43z m2570 -48 c-31 -32
-55 -49 -63 -44 -8 5 5 24 41 61 36 36 56 51 63 44 7 -7 -6 -27 -41 -61z
m-2650 -38 c34 -33 48 -61 29 -61 -5 0 -32 22 -62 48 -35 31 -51 53 -46 61 9
14 18 8 79 -48z m2777 5 c0 -22 -103 -107 -112 -93 -4 7 14 31 45 59 55 51 67
56 67 34z m-2869 -83 c26 -21 48 -46 49 -56 0 -22 -8 -18 -72 36 -78 65 -58
82 23 20z m2949 -15 c-1 -13 -76 -73 -105 -84 -9 -4 -15 0 -15 10 0 9 3 16 8
16 4 0 25 16 47 35 41 36 65 44 65 23z m-2972 -117 c13 -7 14 -13 6 -21 -11
-11 -23 -4 -123 66 -2 2 -1 10 3 19 4 12 14 9 51 -20 25 -19 54 -39 63 -44z
m3046 21 c8 -13 -115 -95 -126 -84 -6 6 10 25 44 51 53 41 72 48 82 33z
m-3159 -87 c51 -33 69 -55 45 -55 -15 0 -120 61 -120 69 0 8 11 21 16 21 2 0
28 -16 59 -35z m3222 -22 c5 -15 -108 -75 -126 -68 -11 4 3 18 44 45 60 39 76
43 82 23z m-3276 -86 c31 -17 54 -37 52 -44 -6 -16 -133 46 -133 64 0 20 21
15 81 -20z m3336 -23 c4 -11 -98 -64 -122 -64 -31 0 -13 21 43 49 57 30 73 33
79 15z m-3376 -88 c32 -16 45 -26 40 -35 -6 -9 -24 -5 -75 18 -40 18 -65 35
-61 41 8 12 28 7 96 -24z m3429 -25 c0 -8 -70 -41 -117 -56 -17 -4 -23 -2 -23
8 0 9 26 25 63 40 59 24 77 26 77 8z m-3495 -77 c62 -25 72 -33 59 -47 -11
-10 -129 40 -132 57 -4 21 -4 21 73 -10z m3535 -37 c0 -7 -21 -20 -47 -29 -87
-29 -93 -30 -93 -15 0 8 23 23 53 35 62 24 87 26 87 9z m-3575 -76 c37 -11 61
-25 63 -35 2 -10 -2 -14 -10 -12 -7 3 -39 12 -70 21 -37 10 -58 21 -58 30 0
19 2 19 75 -4z m3613 -43 c-5 -14 -126 -50 -140 -42 -18 11 -5 22 45 37 66 19
100 21 95 5z m-3610 -81 c27 -8 39 -16 34 -24 -11 -17 -142 14 -142 34 0 17
29 14 108 -10z m3637 -46 c-9 -7 -113 -31 -137 -31 -4 0 -8 6 -8 14 0 16 130
47 145 35 6 -6 6 -12 0 -18z m-3667 -66 c28 -5 42 -12 42 -22 0 -12 -9 -14
-47 -9 -90 13 -102 16 -96 32 4 10 14 13 32 10 14 -3 45 -8 69 -11z m3692 -49
c0 -13 -59 -26 -122 -26 -43 0 -30 24 18 31 72 11 104 10 104 -5z m-3682 -72
c12 -2 22 -9 22 -15 0 -6 -28 -9 -72 -7 -61 3 -73 6 -76 21 -3 16 2 17 50 12
29 -3 63 -8 76 -11z m3692 -48 c0 -12 -65 -26 -127 -26 -40 0 -27 28 15 33 85
9 112 7 112 -7z m-3680 -81 c0 -12 -15 -15 -75 -15 -60 0 -75 3 -75 15 0 12
15 15 75 15 60 0 75 -3 75 -15z m3680 -45 c0 -17 -6 -19 -63 -16 -112 4 -118
36 -6 36 62 0 69 -2 69 -20z m-3680 -75 c0 -12 -15 -15 -75 -15 -60 0 -75 3
-75 15 0 12 15 15 75 15 60 0 75 -3 75 -15z m3649 -31 c18 -4 31 -13 31 -22 0
-12 -10 -14 -52 -8 -29 3 -63 6 -75 6 -14 0 -23 6 -23 15 0 16 59 21 119 9z
m-3639 -78 c0 -15 -43 -26 -106 -26 -32 0 -44 4 -44 14 0 14 15 17 123 24 17
1 27 -3 27 -12z m3623 -42 c22 -4 37 -12 37 -21 0 -11 -12 -13 -62 -8 -76 8
-88 11 -88 25 0 11 55 13 113 4z m-3615 -76 c-4 -11 -128 -40 -137 -32 -12 11
13 33 41 37 71 9 100 7 96 -5z m3568 -40 c49 -9 64 -16 64 -28 0 -16 -5 -16
-75 -2 -49 10 -75 19 -75 28 0 17 6 17 86 2z m-3536 -71 c0 -8 -21 -19 -52
-26 -29 -6 -63 -14 -75 -17 -17 -5 -23 -2 -23 9 0 15 18 22 95 40 38 9 55 7
55 -6z m3518 -48 c33 -8 52 -18 52 -27 0 -11 -8 -13 -32 -8 -77 15 -108 27
-108 42 0 10 6 14 18 11 9 -3 41 -11 70 -18z m-3493 -60 c10 -15 5 -17 -69
-38 -39 -11 -69 -15 -72 -9 -9 14 3 22 64 40 71 20 69 20 77 7z m3458 -55 c31
-10 57 -24 57 -31 0 -18 -19 -16 -87 10 -39 14 -58 27 -55 35 2 7 9 11 16 9 6
-2 37 -13 69 -23z m-3423 -58 c0 -13 -97 -56 -126 -56 -34 0 -9 27 44 46 70
26 82 28 82 10z m3388 -58 c49 -18 62 -31 44 -42 -8 -5 -101 29 -130 47 -17
12 -4 30 17 22 9 -4 40 -16 69 -27z m-3338 -47 c0 -7 -122 -71 -136 -71 -2 0
-4 6 -4 13 0 7 24 25 53 39 54 28 87 35 87 19z m3279 -57 c60 -26 71 -37 51
-49 -12 -8 -122 47 -128 63 -6 18 10 15 77 -14z m-3229 -43 c0 -18 -115 -85
-131 -76 -19 12 -8 23 53 54 66 33 78 36 78 22z m3171 -63 c59 -32 67 -42 50
-53 -13 -8 -133 64 -126 76 9 13 11 12 76 -23z m-3117 -37 c6 -9 -89 -77 -115
-83 -32 -7 -10 24 41 56 59 38 66 41 74 27z m3057 -67 c58 -35 68 -47 50 -58
-13 -8 -133 73 -126 85 9 13 12 12 76 -27z m-2991 -34 c0 -10 -94 -79 -113
-83 -29 -5 -8 25 43 61 51 37 70 43 70 22z m2915 -60 c53 -39 62 -50 49 -63
-9 -9 -114 73 -114 89 0 20 5 18 65 -26z m-2895 -80 c-43 -38 -57 -46 -68 -37
-11 9 -9 15 15 31 15 12 41 33 58 48 20 18 33 23 40 16 7 -6 -8 -26 -45 -58z
m2826 -15 c34 -30 51 -51 47 -61 -4 -11 -19 -3 -62 33 -31 26 -58 48 -60 49
-4 4 9 24 16 24 3 0 30 -20 59 -45z m-2706 -25 c0 -12 -91 -100 -102 -100 -19
0 -5 28 34 67 40 41 68 54 68 33z m2629 -66 c42 -38 49 -49 40 -61 -10 -12
-20 -6 -60 34 -45 45 -61 73 -40 73 5 0 32 -21 60 -46z m-2550 -19 c-1 -6 -21
-31 -44 -57 -32 -35 -45 -44 -54 -35 -8 8 0 23 36 59 44 44 68 57 62 33z
m2465 -67 c31 -36 42 -56 35 -63 -7 -7 -25 8 -58 45 -45 51 -54 70 -31 70 5 0
29 -23 54 -52z m-2380 -20 c-26 -44 -85 -101 -94 -92 -7 7 -3 18 11 35 12 13
33 39 47 57 16 21 29 29 35 23 5 -5 5 -15 1 -23z m2271 -35 c70 -86 66 -80 50
-87 -17 -6 -109 100 -99 115 9 15 18 10 49 -28z m-2175 -18 c0 -17 -68 -115
-79 -115 -22 0 -16 18 21 71 42 60 58 71 58 44z m2093 -69 c39 -57 45 -76 24
-76 -14 0 -89 115 -80 124 12 11 18 6 56 -48z m-1993 4 c0 -14 -69 -120 -79
-120 -20 0 -18 15 7 54 44 69 72 95 72 66z m1898 -77 c23 -38 30 -59 23 -66
-12 -12 -9 -16 -49 51 -35 57 -39 72 -19 72 6 0 27 -26 45 -57z m-1798 19 c0
-4 -15 -36 -33 -69 -24 -45 -36 -60 -46 -54 -10 7 -6 22 20 70 19 33 40 61 47
61 6 0 12 -4 12 -8z m1691 -73 c21 -43 27 -65 20 -72 -6 -6 -12 -9 -13 -6 -21
33 -64 130 -60 134 13 13 24 1 53 -56z m-1591 20 c0 -25 -54 -129 -66 -129
-20 0 -17 14 16 80 28 55 50 77 50 49z m1484 -70 c30 -69 31 -79 13 -79 -8 0
-26 28 -41 63 -30 71 -31 77 -12 77 7 0 25 -27 40 -61z m-1376 19 c-3 -7 -13
-37 -22 -65 -18 -55 -32 -71 -46 -57 -12 13 41 134 58 134 8 0 12 -6 10 -12z
m1263 -60 c13 -35 25 -66 27 -70 2 -5 -5 -8 -16 -8 -12 0 -22 9 -26 23 -3 12
-12 43 -20 70 -23 74 6 61 35 -15z m-1170 -38 c-12 -43 -23 -66 -34 -68 -22
-4 -21 3 3 72 24 70 30 80 41 69 5 -5 1 -37 -10 -73z m1047 33 c6 -16 13 -38
16 -50 3 -13 9 -32 12 -43 4 -14 1 -20 -10 -20 -10 0 -21 20 -32 58 -9 31 -19
63 -21 70 -3 6 2 12 10 12 8 0 19 -12 25 -27z m-922 -25 c-15 -75 -28 -108
-41 -108 -18 0 -18 -3 1 75 11 44 21 65 31 65 12 0 14 -7 9 -32z m810 -5 c3
-16 10 -44 15 -63 12 -47 11 -50 -6 -50 -8 0 -17 12 -21 28 -3 15 -10 43 -15
62 -12 47 -11 50 6 50 8 0 17 -12 21 -27z m-700 -44 c-9 -75 -14 -89 -33 -89
-12 0 -14 7 -9 33 4 17 9 51 13 75 4 28 11 42 21 42 12 0 13 -10 8 -61z m593
-94 c-15 -15 -26 9 -34 78 -5 45 -3 62 7 68 17 11 43 -130 27 -146z m-476 68
c-6 -65 -17 -88 -36 -76 -4 3 -6 17 -3 31 3 15 8 46 11 70 4 26 12 42 21 42
10 0 12 -14 7 -67z m117 -8 c0 -60 -3 -75 -15 -75 -12 0 -15 14 -15 69 0 63 3
73 28 80 1 1 2 -33 2 -74z m234 53 c3 -13 6 -47 6 -75 0 -41 -4 -53 -15 -53
-11 0 -15 12 -15 44 0 24 -3 58 -6 75 -5 24 -3 31 9 31 8 0 17 -10 21 -22z
m-114 -64 c0 -56 -3 -75 -12 -72 -9 3 -14 30 -16 76 -2 60 0 72 13 72 12 0 15
-14 15 -76z"/>
<path d="M2336 4040 c-552 -70 -1008 -402 -1240 -903 -86 -183 -125 -351 -133
-564 -15 -413 102 -760 363 -1074 223 -268 551 -458 904 -524 203 -38 459 -28
671 25 284 72 565 246 768 475 135 152 251 352 311 534 127 391 98 799 -85
1176 -116 239 -331 479 -561 627 -139 89 -356 174 -531 208 -122 24 -359 34
-467 20z m1104 -620 c58 -4 129 -16 158 -25 l52 -16 0 -111 0 -111 -42 6 c-24
4 -74 13 -113 21 -38 9 -109 15 -156 16 -200 0 -330 -87 -400 -270 -31 -78
-38 -254 -14 -336 60 -207 201 -319 425 -338 72 -6 110 0 266 40 18 5 22 0 27
-33 4 -21 7 -66 7 -100 0 -58 -2 -63 -27 -76 -88 -45 -340 -58 -463 -24 -83
23 -177 66 -232 108 -103 78 -197 226 -235 369 -24 91 -24 301 0 390 59 222
213 392 416 460 111 37 176 43 331 30z m-1342 -127 l-3 -108 -222 -3 -223 -2
0 -160 0 -160 213 -2 212 -3 3 -107 3 -108 -216 0 -215 0 -2 -282 -3 -283
-112 -3 -113 -3 0 666 0 665 340 0 341 0 -3 -107z m387 85 c3 -13 4 -313 3
-668 l-3 -645 -110 0 -110 0 -3 655 c-1 360 0 661 3 668 3 8 35 12 109 12 101
0 106 -1 111 -22z m-732 -1502 c78 -28 117 -92 117 -191 0 -82 -26 -136 -82
-171 -37 -24 -56 -28 -140 -32 l-98 -5 0 207 0 206 83 0 c45 -1 99 -7 120 -14z
m257 -191 c0 -198 -1 -205 -20 -205 -19 0 -20 7 -20 205 0 198 1 205 20 205
19 0 20 -7 20 -205z m405 191 c11 -8 16 -20 12 -29 -5 -14 -11 -15 -32 -7 -45
17 -137 12 -172 -10 -55 -33 -79 -107 -62 -195 17 -90 77 -126 197 -117 l42 3
0 65 0 64 -45 0 c-38 0 -45 3 -45 20 0 18 7 20 65 20 l65 0 0 -99 0 -98 -31
-7 c-17 -3 -63 -6 -101 -6 -127 0 -188 57 -196 185 -6 96 19 154 86 196 40 25
55 29 122 29 48 0 83 -5 95 -14z m175 -191 c0 -198 -1 -205 -20 -205 -19 0
-20 7 -20 205 0 198 1 205 20 205 19 0 20 -7 20 -205z m370 185 c0 -18 -7 -20
-65 -20 l-65 0 0 -185 0 -185 -25 0 -25 0 0 185 0 185 -65 0 c-47 0 -65 4 -65
13 0 8 3 17 7 20 3 4 73 7 155 7 141 0 148 -1 148 -20z m276 -162 c94 -240 91
-230 63 -226 -17 2 -27 17 -44 63 l-23 60 -86 3 c-76 2 -87 1 -92 -15 -25 -78
-42 -108 -62 -111 -12 -2 -22 -1 -22 1 0 2 32 85 71 183 39 99 75 189 80 202
5 12 17 22 26 22 14 0 34 -41 89 -182z m194 -3 l0 -185 90 0 c84 0 90 -1 90
-20 0 -20 -5 -21 -112 -18 l-113 3 1 40 c1 22 2 113 3 203 1 155 2 162 21 162
19 0 20 -7 20 -185z"/>
<path d="M1596 1828 c-8 -30 -8 -237 0 -277 6 -30 8 -31 57 -31 65 0 132 32
154 73 9 19 16 56 16 93 0 111 -53 164 -164 164 -50 0 -57 -3 -63 -22z"/>
<path d="M3116 1752 c-16 -42 -31 -83 -33 -89 -4 -10 12 -13 61 -13 36 0 66 3
66 8 0 7 -59 164 -64 169 -1 1 -15 -33 -30 -75z"/>
</g>
</svg>
