<svg width="72" height="25" viewBox="0 0 72 25" fill="none" xmlns="http://www.w3.org/2000/svg">
<path d="M5.55548 12.4499L2.77696 15.2613L0 12.4499L2.77696 9.63855L5.55548 12.4499ZM12.2991 5.62275L17.0594 10.442L19.8348 7.63696L12.2975 0L4.76028 7.63696L7.53724 10.4483L12.2991 5.62275ZM21.8196 9.63855L19.0427 12.4499L21.8181 15.2613L24.595 12.4499L21.8196 9.63855ZM12.2991 19.2771L7.5388 14.4578L4.76028 17.266L12.2975 24.8951L19.8348 17.266L17.0578 14.4547L12.2991 19.2771ZM12.2991 15.2613L15.076 12.4499L12.2991 9.63855L9.52212 12.4499L12.2991 15.2613ZM30.1521 5.62117H36.4154C37.9575 5.62117 39.1721 6.05053 39.9424 6.83033C40.2459 7.13224 40.4846 7.49427 40.6437 7.89379C40.8028 8.29332 40.8788 8.72176 40.867 9.15236V9.19024C40.867 10.7325 40.0578 11.5912 39.0942 12.1374C40.6534 12.742 41.6185 13.6591 41.6185 15.4933V15.5297C41.6185 18.0269 39.6149 19.2755 36.5698 19.2755H30.1505L30.1521 5.62117ZM35.7793 11.1461C37.0906 11.1461 37.9185 10.7183 37.9185 9.70327V9.6638C37.9185 8.7672 37.2247 8.25891 35.9726 8.25891H33.0413V11.1413L35.7793 11.1461ZM36.5698 16.6488C37.8811 16.6488 38.6701 16.1753 38.6701 15.1666V15.1271C38.6701 14.21 37.9965 13.6449 36.4731 13.6449H33.0429V16.6441L36.5698 16.6488ZM44.5467 5.62591H47.2847L53.6058 14.0348V5.62117H56.534V19.2771H54.008L47.4749 10.5951V19.2771H44.5452L44.5467 5.62591ZM60.2527 5.62591H66.5207C68.0628 5.62591 69.2774 6.05527 70.0477 6.83507C70.3512 7.13698 70.5899 7.499 70.749 7.89853C70.9081 8.29805 70.9841 8.7265 70.9723 9.1571V9.19498C70.9723 10.7372 70.1631 11.5959 69.1995 12.1421C70.7587 12.7467 71.7238 13.6638 71.7238 15.4981V15.5297C71.7238 18.0269 69.7202 19.2755 66.6751 19.2755H60.2511L60.2527 5.62591ZM65.8799 11.1508C67.1912 11.1508 68.0191 10.723 68.0191 9.708V9.66854C68.0191 8.77193 67.3253 8.26364 66.0732 8.26364H63.1419V11.1413L65.8799 11.1508ZM66.6767 16.6441C67.988 16.6441 68.7769 16.1705 68.7769 15.1619V15.1224C68.7769 14.2053 68.1033 13.6401 66.58 13.6401H63.1497V16.6394L66.6767 16.6441Z" fill="#F0B90B"/>
</svg>
